<svg xmlns="http://www.w3.org/2000/svg" version="1.1" xmlns:xlink="http://www.w3.org/1999/xlink" xmlns:svgjs="http://svgjs.dev/svgjs" width="1500" height="518" viewBox="0 0 1500 518"><g transform="matrix(1,0,0,1,-0.9090909090907644,-1.092830860411766)"><svg viewBox="0 0 396 137" data-background-color="#cbb2da" preserveAspectRatio="xMidYMid meet" height="518" width="1500" xmlns="http://www.w3.org/2000/svg" xmlns:xlink="http://www.w3.org/1999/xlink"><g id="tight-bounds" transform="matrix(1,0,0,1,0.23999999999995225,0.2890305557459669)"><svg viewBox="0 0 395.52 136.42193888850804" height="136.42193888850804" width="395.52"><g><svg viewBox="0 0 668.588040452541 230.60800160852523" height="136.42193888850804" width="395.52"><g><rect width="11.553593095841368" height="128.75613423142656" x="231.26943925240295" y="50.925933688549335" fill="#32456f" opacity="1" stroke-width="0" stroke="transparent" fill-opacity="1" class="rect-yte-0" data-fill-palette-color="primary" rx="1%" id="yte-0" data-palette-color="#32456f"></rect></g><g transform="matrix(1,0,0,1,273.0680404525411,51.24622257967228)"><svg viewBox="0 0 395.52 128.11555644918067" height="128.11555644918067" width="395.52"><g id="textblocktransform"><svg viewBox="0 0 395.52 128.11555644918067" height="128.11555644918067" width="395.52" id="textblock"><g><svg viewBox="0 0 395.52 128.11555644918067" height="128.11555644918067" width="395.52"><g transform="matrix(1,0,0,1,0,0)"><svg width="395.52" viewBox="0.7 -35.3 110.51222222222218 35.8" height="128.11555644918067" data-palette-color="#32456f"><path d="M10.5 0.5L10.5 0.5Q7.8 0.5 5.58-0.88 3.35-2.25 2.02-4.53 0.7-6.8 0.7-9.55L0.7-9.55 0.7-11.85Q0.7-12.1 0.95-12.1L0.95-12.1 6.55-12.1Q6.75-12.1 6.75-11.85L6.75-11.85 6.75-9.55Q6.75-7.9 7.85-6.73 8.95-5.55 10.5-5.55L10.5-5.55Q12.05-5.55 13.15-6.75 14.25-7.95 14.25-9.55L14.25-9.55Q14.25-11.4 11.85-12.75L11.85-12.75Q11.05-13.2 9.35-14.15 7.65-15.1 6.15-15.95L6.15-15.95Q3.4-17.55 2.08-19.98 0.75-22.4 0.75-25.45L0.75-25.45Q0.75-28.25 2.1-30.48 3.45-32.7 5.68-34 7.9-35.3 10.5-35.3L10.5-35.3Q13.15-35.3 15.38-33.98 17.6-32.65 18.93-30.43 20.25-28.2 20.25-25.45L20.25-25.45 20.25-21.35Q20.25-21.15 20.05-21.15L20.05-21.15 14.45-21.15Q14.25-21.15 14.25-21.35L14.25-21.35 14.2-25.45Q14.2-27.2 13.1-28.3 12-29.4 10.5-29.4L10.5-29.4Q8.95-29.4 7.85-28.23 6.75-27.05 6.75-25.45L6.75-25.45Q6.75-23.8 7.45-22.7 8.15-21.6 10-20.6L10-20.6Q10.25-20.45 10.98-20.08 11.7-19.7 12.55-19.23 13.4-18.75 14.08-18.4 14.75-18.05 14.9-17.95L14.9-17.95Q17.4-16.55 18.85-14.53 20.3-12.5 20.3-9.55L20.3-9.55Q20.3-6.7 18.98-4.42 17.65-2.15 15.43-0.83 13.2 0.5 10.5 0.5ZM29.65 0L24.05 0Q23.8 0 23.8-0.25L23.8-0.25 23.9-34.6Q23.9-34.8 24.1-34.8L24.1-34.8 33.7-34.8Q38.3-34.8 40.97-32 43.65-29.2 43.65-24.4L43.65-24.4Q43.65-20.85 42.25-18.25 40.85-15.65 38.6-14.25 36.35-12.85 33.7-12.85L33.7-12.85 29.9-12.85 29.9-0.25Q29.9 0 29.65 0L29.65 0ZM29.9-28.8L29.9-18.9 33.7-18.9Q35.3-18.9 36.47-20.43 37.65-21.95 37.65-24.4L37.65-24.4Q37.65-26.35 36.6-27.6 35.55-28.85 33.7-28.85L33.7-28.85 29.9-28.8ZM42.84-0.25L42.84-0.25 49.05-34.6Q49.09-34.8 49.3-34.8L49.3-34.8 56.55-34.8Q56.75-34.8 56.8-34.6L56.8-34.6 62.75-0.25Q62.8 0 62.55 0L62.55 0 57 0Q56.8 0 56.75-0.25L56.75-0.25 56.2-3.9 49.4-3.9 48.84-0.25Q48.8 0 48.59 0L48.59 0 43.05 0Q42.84 0 42.84-0.25ZM52.65-23.3L50.4-9.25 55.2-9.25 53.15-23.3 52.84-25.15 52.65-23.3ZM71.74 0L66.09 0Q65.89 0 65.89-0.25L65.89-0.25 65.99-34.6Q65.99-34.8 66.19-34.8L66.19-34.8 76.29-34.8Q78.99-34.8 81.27-33.48 83.54-32.15 84.89-29.93 86.24-27.7 86.24-24.9L86.24-24.9Q86.24-23.05 85.69-21.58 85.14-20.1 84.39-19.07 83.64-18.05 83.04-17.55L83.04-17.55Q85.74-14.55 85.74-10.5L85.74-10.5 85.79-0.25Q85.79 0 85.54 0L85.54 0 79.89 0Q79.69 0 79.69-0.15L79.69-0.15 79.69-10.5Q79.69-12.3 78.42-13.63 77.14-14.95 75.29-14.95L75.29-14.95 71.99-14.95 71.94-0.25Q71.94 0 71.74 0L71.74 0ZM71.99-28.8L71.99-20.95 76.29-20.95Q77.84-20.95 79.04-22.1 80.24-23.25 80.24-24.9L80.24-24.9Q80.24-26.5 79.07-27.65 77.89-28.8 76.29-28.8L76.29-28.8 71.99-28.8ZM95.84 0L90.19 0Q89.99 0 89.99-0.25L89.99-0.25 90.09-34.55Q90.09-34.8 90.29-34.8L90.29-34.8 95.89-34.8Q96.09-34.8 96.09-34.55L96.09-34.55 96.09-22.7 103.94-34.6Q104.09-34.8 104.29-34.8L104.29-34.8 110.04-34.8Q110.24-34.8 110.14-34.6L110.14-34.6 101.49-20.8 111.19-0.2Q111.29 0 110.94 0L110.94 0 104.84 0Q104.59 0 104.54-0.2L104.54-0.2 97.79-14.9 96.04-12.15 96.04-0.25Q96.04 0 95.84 0L95.84 0Z" opacity="1" transform="matrix(1,0,0,1,0,0)" fill="#32456f" class="wordmark-text-0" data-fill-palette-color="primary" id="text-0"></path></svg></g></svg></g></svg></g></svg></g><g><svg viewBox="0 0 201.02443114810617 230.60800160852523" height="230.60800160852523" width="201.02443114810617"><g><svg xmlns="http://www.w3.org/2000/svg" xmlns:xlink="http://www.w3.org/1999/xlink" version="1.0" x="0" y="0" viewBox="11.7923336 5.4039216 77.98476600000001 89.46132039999999" enable-background="new 0 0 100 100" xml:space="preserve" height="230.60800160852523" width="201.02443114810617" class="icon-icon-0" data-fill-palette-color="accent" id="icon-0"><polygon points="51.3392067,21.5548553 51.2853622,43.8103523 22.3294468,5.4039216 40.4145317,50.2183838 11.7923336,24.330555   51.2050591,76.9569855 51.2460327,60.0152016 89.7770996,94.865242 " fill="#e36b4b" data-fill-palette-color="accent"></polygon></svg></g></svg></g></svg></g><defs></defs></svg><rect width="395.52" height="136.42193888850804" fill="none" stroke="none" visibility="hidden"></rect></g></svg></g></svg>